# xmcd CD database file
#
# Track frame offsets:
#	150
#	20424
#	44918
#	70139
#	97533
#	120438
#	141624
#	191733
#	202896
#	220194
#	242431
#	274417
#
# Disc length: 3961 seconds
#
# Revision: 1
# Processed by: cddbd v1.5.2PL0 Copyright (c) Steve Scherf et al.
# Submitted via: CDex 1.51
#
DISCID=b00f770c
DTITLE=Trio Gitan - 20 ans de Trio Gitan - Swing Bohémien  (Dorado Schmitt, Babik Reinhardt, Christian Escoudé)
DYEAR=2000
DGENRE=Jazz
TTITLE0=Nadine
TTITLE1=Nina
TTITLE2=La Source de la Vie
TTITLE3=Bolero
TTITLE4=Pretexe
TTITLE5=Dialectique
TTITLE6='' Medley Django ''
TTITLE7=Bal à Jo
TTITLE8=Milou en Mai
TTITLE9=Swing Bohémien
TTITLE10=Où es tu mon amour
TTITLE11=Dorado Swing
EXTD=YEAR: 2000
EXTT0=
EXTT1=
EXTT2=
EXTT3=
EXTT4=
EXTT5=
EXTT6=
EXTT7=
EXTT8=
EXTT9=
EXTT10=
EXTT11=
PLAYORDER=
